<svg width="221" height="221" viewBox="0 0 221 221" fill="none" xmlns="http://www.w3.org/2000/svg">
<g clip-path="url(#clip0_30_3296)">
<path d="M32.8894 87.3144L95.4361 200.375" stroke="#EFB5B5" stroke-width="11" stroke-linecap="round"/>
<path d="M187.4 46.1569L231.204 125.337" stroke="#EFB5B5" stroke-width="11" stroke-linecap="round" stroke-linejoin="round"/>
<path d="M42.997 52.1761L99.5544 20.8878" stroke="#EFB5B5" stroke-width="11" stroke-linecap="round" stroke-linejoin="round"/>
<path d="M130.604 210.537L221.096 160.475" stroke="#EFB5B5" stroke-width="11" stroke-linecap="round"/>
<path d="M231.204 125.337C237.516 136.602 232.408 154.218 221.096 160.475" stroke="#EFB5B5" stroke-width="11" stroke-linecap="round" stroke-linejoin="round"/>
<path d="M95.466 200.429C101.724 211.741 119.293 216.794 130.604 210.537" stroke="#EFB5B5" stroke-width="11" stroke-linecap="round" stroke-linejoin="round"/>
<path d="M32.8804 87.298C26.6318 76.0029 31.825 58.6857 42.9971 52.1761" stroke="#EFB5B5" stroke-width="11" stroke-linecap="round" stroke-linejoin="round"/>
<path d="M187.366 46.2417L99.5544 20.8878" stroke="#EFB5B5" stroke-width="11" stroke-linecap="round" stroke-linejoin="round"/>
<path d="M118.327 54.8221C124.586 66.0528 142.2 71.1622 153.466 64.9298" stroke="#EFB5B5" stroke-width="11" stroke-linecap="round" stroke-linejoin="round"/>
<path d="M118.327 54.8222L99.5544 20.8878" stroke="#EFB5B5" stroke-width="11" stroke-linecap="round" stroke-linejoin="round"/>
<path d="M153.466 64.9298L187.4 46.1568" stroke="#EFB5B5" stroke-width="11" stroke-linecap="round" stroke-linejoin="round"/>
<path d="M118.089 187.914L128.197 152.775L93.0583 142.668" stroke="#EFB5B5" stroke-width="11" stroke-linecap="round" stroke-linejoin="round"/>
<path d="M152.023 169.141L174.646 156.625" stroke="#EFB5B5" stroke-width="11" stroke-linecap="round" stroke-linejoin="round"/>
</g>
<defs>
<clipPath id="clip0_30_3296">
<rect width="221" height="221" fill="white"/>
</clipPath>
</defs>
</svg>
