<svg width="32" height="33" viewBox="0 0 32 33" fill="none" xmlns="http://www.w3.org/2000/svg">
<g clip-path="url(#clip0_2_8186)">
<path d="M16 32.3477C24.6157 32.3477 31.6 25.3633 31.6 16.7477C31.6 8.13206 24.6157 1.14771 16 1.14771C7.38438 1.14771 0.400024 8.13206 0.400024 16.7477C0.400024 25.3633 7.38438 32.3477 16 32.3477Z" stroke="white"/>
<path d="M19.52 11.1479V12.1079C19.52 12.5495 19.1616 12.9079 18.72 12.9079H17.6C17.1584 12.9079 16.96 13.4263 16.96 13.8679V15.4679H18.08C18.5216 15.4679 18.88 15.8263 18.88 16.2679V17.2279C18.88 17.6695 18.5216 18.0279 18.08 18.0279H16.96V22.3479C16.96 22.7895 16.6016 23.1479 16.16 23.1479H15.2C14.7584 23.1479 14.4 22.7895 14.4 22.3479V18.0279H13.28C12.8384 18.0279 12.48 17.6695 12.48 17.2279V16.2679C12.48 15.8263 12.8384 15.4679 13.28 15.4679H14.4V12.9079C14.4 11.4943 15.5464 10.3479 16.96 10.3479H18.72C19.1616 10.3479 19.52 10.7063 19.52 11.1479Z" fill="white"/>
</g>
<defs>
<clipPath id="clip0_2_8186">
<rect width="32" height="32" fill="white" transform="translate(0 0.747803)"/>
</clipPath>
</defs>
</svg>
