<svg width="562" height="382" viewBox="0 0 562 382" fill="none" xmlns="http://www.w3.org/2000/svg">
<mask id="mask0_399_2880" style="mask-type:alpha" maskUnits="userSpaceOnUse" x="0" y="0" width="562" height="382">
<path d="M562 197.017C562 299.111 436.364 381.875 281.384 381.875C126.405 381.875 0.768616 299.111 0.768616 197.017C0.768616 94.9225 156.105 0.125 311.085 0.125C466.064 0.125 562 94.9225 562 197.017Z" fill="#D9D9D9"/>
</mask>
<g mask="url(#mask0_399_2880)">
<path d="M474.881 80.7764C465.331 79.9315 458.561 87.4334 448.832 88.5753C444.869 89.0361 440.757 88.8211 437.054 90.4648C431.314 93.0252 427.919 99.3749 426.367 105.535C425.277 109.857 424.693 114.619 421.641 117.902C418.881 120.867 414.769 121.875 411.4 124.047C401.977 130.15 400.185 143.06 398.649 153.05C397.901 157.884 397.471 162.857 398.715 167.532C398.792 167.813 400.451 171.889 400.451 171.889L425.625 141.073C442.042 120.974 458.234 100.619 474.912 80.761L474.881 80.7764Z" fill="#4EA5D9"/>
<path d="M474.881 80.7764C474.594 81.1297 475.788 87.1927 475.685 88.4575C475.439 91.9008 474.154 95.1883 471.998 97.8848C469.663 100.906 466.877 104.163 467.046 107.891C467.195 111.03 469.453 113.523 470.155 116.55C471.138 120.8 468.91 125.327 466.294 129.019C461.398 135.937 455.002 141.268 447.736 145.303C440.967 149.056 438.934 153.803 434.842 160.332C429.998 168.064 422.977 169.114 415.225 171.132C411.686 172.053 408.598 173.129 404.881 172.821C404.604 172.821 400.436 171.915 400.436 171.915L474.881 80.7764Z" fill="#4EA4D9"/>
<path d="M400.062 172.345C399.951 172.243 399.885 172.101 399.876 171.95C399.867 171.799 399.918 171.651 400.016 171.536L474.461 80.3872C474.506 80.3281 474.563 80.2785 474.627 80.2413C474.692 80.2041 474.763 80.1801 474.837 80.1706C474.911 80.161 474.986 80.1662 475.057 80.1858C475.129 80.2055 475.196 80.2391 475.255 80.2848C475.366 80.3875 475.433 80.5292 475.441 80.6801C475.45 80.831 475.4 80.9793 475.301 81.0939L400.856 172.243C400.811 172.302 400.754 172.352 400.69 172.389C400.625 172.426 400.554 172.45 400.48 172.459C400.407 172.469 400.332 172.464 400.26 172.444C400.188 172.425 400.121 172.391 400.062 172.345Z" fill="#F5FAFA"/>
<path d="M419.234 148.882C419.2 148.85 419.169 148.814 419.142 148.775C419.061 148.645 419.031 148.49 419.06 148.34C419.088 148.19 419.173 148.056 419.296 147.965C420.264 147.243 443.199 130.345 457.256 133.259C457.329 133.271 457.4 133.299 457.462 133.341C457.523 133.384 457.575 133.439 457.613 133.503C457.651 133.568 457.675 133.64 457.682 133.714C457.689 133.789 457.68 133.864 457.655 133.935C457.621 134.084 457.53 134.214 457.403 134.299C457.275 134.384 457.12 134.417 456.969 134.39C443.399 131.574 420.151 148.728 419.92 148.882C419.823 148.959 419.702 149.001 419.577 149.001C419.453 149.001 419.332 148.959 419.234 148.882Z" fill="#F5FAFA"/>
<path d="M441.566 121.537C441.479 121.462 441.417 121.361 441.39 121.249C441.362 121.138 441.37 121.02 441.412 120.913C441.479 120.728 448.028 102.478 439.963 95.7238C439.852 95.6211 439.785 95.4795 439.777 95.3286C439.768 95.1777 439.818 95.0293 439.917 94.9147C439.962 94.8558 440.018 94.8063 440.082 94.7692C440.146 94.732 440.216 94.708 440.29 94.6985C440.363 94.6889 440.438 94.6941 440.509 94.7137C440.58 94.7332 440.647 94.7667 440.705 94.8123C449.359 102.074 442.754 120.477 442.462 121.256C442.413 121.4 442.31 121.52 442.174 121.591C442.039 121.661 441.881 121.677 441.735 121.635C441.673 121.612 441.616 121.579 441.566 121.537Z" fill="#F5FAFA"/>
<path d="M542.342 131.098C539.679 139.501 535.173 151.325 527.389 155.795C523.677 157.93 519.349 159.472 516.093 162.513C512.339 166.021 511.786 170.655 508.693 174.45C496.148 189.853 479.213 173.989 466.97 184.666C463.969 187.277 461.946 190.99 458.981 193.653C455.182 197.068 450.174 198.415 445.529 198.348C437.029 198.225 428.513 195.317 421.298 191.568C416.413 189.008 411.164 188.271 407.047 184.23C406.842 184.026 403.974 180.415 403.974 180.421L542.342 131.098Z" fill="#29527C"/>
<path d="M542.336 131.098C539.648 132.019 533.667 125.66 531.629 124.41C526.718 121.389 520.758 119.079 514.772 118.726C510.772 118.491 506.363 119.602 503.132 122.643C501.929 123.78 500.869 125.204 499.425 125.89C497.295 126.914 494.954 126.085 493.28 124.743C487.135 119.858 481.697 116.263 473.084 121.343C466.596 125.168 458.049 132.404 453.159 138.216C451.423 140.264 449.754 142.619 447.419 143.751C445.304 144.775 443.01 144.652 440.762 144.826C427.786 145.851 411.666 157.726 406.842 170.993C406.678 171.449 403.77 180.477 403.944 180.421L542.336 131.098Z" fill="#29527C"/>
<path d="M403.258 180.666C403.273 180.757 403.309 180.842 403.362 180.917C403.415 180.992 403.484 181.054 403.564 181.099C403.644 181.143 403.733 181.17 403.824 181.175C403.916 181.181 404.007 181.167 404.092 181.132L542.485 131.804C542.672 131.734 542.829 131.6 542.928 131.426C543.027 131.252 543.062 131.049 543.028 130.852C543.012 130.762 542.977 130.676 542.924 130.601C542.871 130.526 542.802 130.464 542.722 130.42C542.642 130.375 542.553 130.349 542.461 130.343C542.37 130.337 542.278 130.352 542.193 130.386L403.805 179.714C403.617 179.783 403.458 179.916 403.358 180.091C403.258 180.265 403.222 180.469 403.258 180.666Z" fill="#F5FAFA"/>
<path d="M438.898 167.967C438.909 168.028 438.93 168.087 438.959 168.141C439.003 168.222 439.064 168.293 439.138 168.348C439.212 168.403 439.297 168.441 439.387 168.46C439.477 168.479 439.57 168.478 439.66 168.458C439.75 168.437 439.834 168.397 439.907 168.341C441.212 167.465 471.911 146.757 476.556 127.508C476.584 127.419 476.593 127.325 476.582 127.233C476.571 127.14 476.54 127.051 476.492 126.971C476.443 126.892 476.378 126.823 476.301 126.771C476.223 126.719 476.136 126.684 476.044 126.668C475.846 126.653 475.649 126.711 475.49 126.831C475.332 126.95 475.223 127.124 475.183 127.319C470.698 145.902 439.574 166.887 439.261 167.096C439.123 167.191 439.015 167.323 438.951 167.478C438.886 167.632 438.868 167.802 438.898 167.967Z" fill="#F5FAFA"/>
<path d="M480.406 153.168C480.43 153.308 480.502 153.436 480.609 153.53C480.717 153.623 480.853 153.676 480.995 153.68C481.226 153.68 504.315 154.387 507.111 167.947C507.126 168.037 507.162 168.123 507.215 168.197C507.268 168.272 507.337 168.334 507.417 168.378C507.497 168.422 507.587 168.448 507.678 168.453C507.77 168.458 507.861 168.443 507.946 168.407C508.134 168.337 508.291 168.204 508.392 168.03C508.492 167.856 508.528 167.653 508.494 167.455C505.513 152.912 482.214 152.2 481.221 152.18C481.022 152.186 480.832 152.263 480.685 152.397C480.538 152.532 480.445 152.715 480.422 152.912C480.402 152.996 480.397 153.083 480.406 153.168Z" fill="#F5FAFA"/>
<path d="M423.802 174.614C423.826 174.754 423.897 174.882 424.005 174.975C424.112 175.069 424.249 175.122 424.391 175.126C424.621 175.126 447.711 175.832 450.507 189.392C450.522 189.482 450.557 189.568 450.61 189.643C450.663 189.718 450.733 189.779 450.813 189.824C450.893 189.868 450.982 189.894 451.074 189.899C451.165 189.904 451.257 189.888 451.341 189.853C451.53 189.784 451.688 189.651 451.788 189.476C451.889 189.302 451.924 189.098 451.889 188.901C448.909 174.358 425.61 173.646 424.621 173.625C424.422 173.631 424.231 173.708 424.084 173.843C423.936 173.977 423.842 174.16 423.817 174.358C423.797 174.441 423.792 174.528 423.802 174.614Z" fill="#F5FAFA"/>
<path d="M527.343 216.051C523.216 207.397 513.302 205.374 507.418 197.575C505.012 194.385 503.117 190.734 499.809 188.358C494.714 184.691 487.519 184.993 481.405 186.775C477.129 188.025 472.7 189.935 468.347 188.962C464.394 188.086 461.439 185.05 457.855 183.252C447.823 178.214 435.779 183.196 426.388 186.934C421.841 188.742 417.334 190.887 413.934 194.328C413.729 194.533 411.062 198.031 411.056 198.031L450.368 204.124C476.018 208.098 501.765 211.749 527.338 216.066L527.343 216.051Z" fill="#FFB750"/>
<path d="M527.348 216.051C526.897 215.979 522.273 220.081 521.137 220.659C518.041 222.191 514.554 222.748 511.136 222.257C507.347 221.776 503.127 221.018 500.003 223.056C497.371 224.771 496.368 227.982 494.115 230.117C490.945 233.118 485.921 233.492 481.405 233.108C472.961 232.391 465.121 229.58 457.967 225.36C451.31 221.422 446.19 222.073 438.473 221.852C429.353 221.596 424.893 216.076 419.224 210.413C416.664 207.827 414.144 205.712 412.526 202.348C412.403 202.102 411.062 198.056 411.056 198.056L527.348 216.051Z" fill="#FFB750"/>
<path d="M410.478 197.944C410.508 197.795 410.595 197.664 410.72 197.579C410.845 197.493 410.999 197.461 411.149 197.488L527.435 215.508C527.511 215.514 527.585 215.536 527.652 215.571C527.72 215.607 527.779 215.656 527.827 215.716C527.875 215.775 527.91 215.843 527.931 215.917C527.952 215.99 527.957 216.067 527.947 216.143C527.916 216.291 527.829 216.42 527.703 216.505C527.578 216.589 527.425 216.621 527.276 216.593L410.964 198.553C410.82 198.535 410.688 198.461 410.597 198.347C410.506 198.234 410.463 198.089 410.478 197.944Z" fill="#F5FAFA"/>
<path d="M440.424 202.583C440.435 202.536 440.449 202.49 440.465 202.445C440.535 202.309 440.655 202.204 440.8 202.154C440.945 202.103 441.103 202.11 441.243 202.173C442.354 202.645 468.547 213.854 473.155 227.449C473.178 227.52 473.186 227.594 473.178 227.667C473.171 227.74 473.149 227.812 473.113 227.876C473.077 227.94 473.028 227.997 472.969 228.041C472.91 228.086 472.843 228.118 472.771 228.135C472.625 228.18 472.468 228.168 472.331 228.1C472.193 228.033 472.087 227.915 472.034 227.772C467.584 214.647 441.033 203.29 440.767 203.192C440.647 203.148 440.547 203.062 440.484 202.95C440.421 202.839 440.4 202.709 440.424 202.583Z" fill="#F5FAFA"/>
<path d="M475.306 207.985C475.328 207.872 475.383 207.768 475.466 207.688C475.548 207.607 475.653 207.554 475.767 207.535C475.962 207.504 495.006 203.909 496.762 193.53C496.793 193.382 496.88 193.251 497.005 193.166C497.13 193.081 497.284 193.048 497.433 193.074C497.509 193.08 497.583 193.102 497.65 193.138C497.718 193.173 497.777 193.222 497.825 193.282C497.873 193.341 497.908 193.41 497.929 193.483C497.949 193.556 497.955 193.633 497.945 193.709C496.066 204.846 476.847 208.467 476.033 208.615C475.884 208.648 475.728 208.62 475.599 208.539C475.47 208.457 475.377 208.329 475.342 208.18C475.318 208.118 475.305 208.052 475.306 207.985Z" fill="#F5FAFA"/>
<path d="M427.325 171.157C427.325 212.589 411.507 246.176 391.992 246.176C372.477 246.176 356.659 212.589 356.659 171.157C356.659 129.725 376.573 85.8971 396.089 85.8971C415.604 85.8971 427.325 129.725 427.325 171.157Z" fill="white"/>
<path d="M432.876 198.594C432.633 191.084 432.178 183.546 431.509 175.981C427.75 133.991 416.94 91.9191 395.94 56.3608C394.387 53.7356 392.781 51.1513 391.121 48.608C376.947 26.9678 356.367 9.3167 332.489 4.6722C312.626 0.811173 292.363 6.38764 274.625 16.3116C256.795 26.297 243.235 41.439 227.002 53.8516C182.457 87.9454 121.398 88.5394 78.6036 125.26C36.6137 161.305 21.8045 228.801 39.3635 284.095C47.7001 310.497 60.3585 332.803 76.5707 350.664H353.602V361.034C395.167 332.317 411.343 295.811 418.231 278.175C427.945 253.345 433.726 225.391 432.876 198.594Z" fill="#D9D9D9"/>
<path d="M282.921 207.453C283.643 209.752 284.59 212.108 286.464 213.705C289.214 216.056 293.244 216.235 296.926 216.266C301.176 216.327 305.831 216.266 309.072 213.628C310.905 212.143 312.032 210.008 312.851 207.842C314.246 204.095 314.851 200.1 314.627 196.108C314.404 192.115 313.356 188.213 311.55 184.645C310.942 183.305 310.053 182.11 308.944 181.143C307.408 179.934 305.416 179.458 303.449 179.279C298.429 178.833 293.406 180.116 289.214 182.914C285.281 185.577 282.081 189.766 280.903 194.282C279.848 198.369 281.707 203.587 282.921 207.453Z" fill="#28527C"/>
<path d="M310.675 237.983C308.591 239.386 302.482 238.52 300.464 239.678C298.447 240.835 291.718 241.178 289.746 240.64C289.746 230.67 294.309 220.588 294.396 211.416C298.421 219.85 302.635 215.216 306.727 209.445C306.645 218.432 310.572 228.986 310.675 237.983Z" fill="#FFE3CA"/>
<path d="M294.222 218.565C294.581 219.555 295.063 220.496 295.656 221.366C296.745 223.005 298.395 224.19 300.295 224.699C302.548 225.34 304.837 224.187 306.532 222.749C307.085 222.272 307.618 221.765 308.14 221.253C307.351 217.198 306.691 213.193 306.727 209.476C302.63 215.247 298.421 219.881 294.396 211.447C294.647 211.959 294.324 213.326 294.273 213.91C294.196 214.816 294.038 215.713 293.945 216.619C293.902 217.28 293.996 217.942 294.222 218.565Z" fill="#FCD2B1"/>
<path d="M316.041 181.516C316.041 181.132 315.99 180.748 315.939 180.364C315.739 178.828 314.915 177.671 314.367 176.227C313.845 174.836 313.069 173.554 312.078 172.448C311.625 171.767 311.125 171.119 310.583 170.507L310.296 170.092C309.456 168.817 308.76 167.44 307.736 166.318C304.807 163.143 299.978 162.734 295.661 162.923C292.988 163.031 290.274 163.282 287.806 164.306C285.337 165.33 283.125 167.235 282.291 169.775C282.196 170.076 282.122 170.384 282.07 170.696C276.248 174.393 272.976 182.003 274.727 188.742C275.321 191.015 276.412 193.35 275.946 195.614C276.136 196.945 276.274 198.287 276.381 199.628C277.349 200.704 278.896 201.252 279.904 200.294C280.637 199.598 280.698 198.476 280.713 197.467C280.761 194.491 280.806 191.517 280.847 188.547C280.814 187.993 280.912 187.438 281.133 186.929C281.447 186.463 281.855 186.069 282.332 185.772C284.172 184.385 285.673 182.597 286.72 180.543C288.511 182.222 290.593 183.558 292.865 184.486C296.885 186.023 301.314 186.125 305.58 185.628C306.766 185.498 307.942 185.292 309.103 185.014C309.349 189.145 309.596 193.274 309.845 197.401C309.932 198.937 310.291 200.801 311.755 201.231C312.749 201.528 313.839 200.924 314.428 200.069C314.955 199.169 315.279 198.167 315.381 197.13C315.709 195.148 315.975 193.151 316.128 191.148C316.21 190.124 316.313 189.1 316.343 188.04C316.374 186.98 316.226 186.13 316.169 185.152C316.062 183.939 316.103 182.725 316.041 181.516Z" fill="#28527C"/>
<path d="M313.788 197.324C313.64 196.612 313.399 195.839 312.826 195.486C312.484 195.301 312.092 195.235 311.709 195.296C310.819 195.419 310.01 195.877 309.446 196.576C309.356 196.609 309.272 196.653 309.195 196.71C309.251 198.061 309.236 199.413 309.236 200.806C309.236 203.479 309.323 205.067 308.944 207.729C308.903 207.991 308.591 209.399 308.493 209.634C308.836 209.602 309.17 209.504 309.477 209.348C311.494 208.59 313.02 206.598 313.701 204.35C314.319 202.052 314.349 199.636 313.788 197.324Z" fill="#FFE3CA"/>
<path d="M274.953 188.527C274.953 188.527 277.907 195.491 279.182 201.472C280.457 207.453 283.617 222.354 293.392 219.159C303.168 215.964 307.367 213.326 308.565 210.09C309.763 206.854 312.211 189.034 305.17 183.135C298.129 177.235 276.934 173.835 274.953 188.527Z" fill="#FFE3CA"/>
<path d="M304.013 171.838C303.961 171.526 303.888 171.218 303.793 170.917C302.963 168.356 300.72 166.472 298.278 165.448C295.835 164.423 293.095 164.167 290.428 164.065C286.106 163.891 281.277 164.285 278.348 167.46C277.324 168.581 276.612 169.959 275.787 171.234L275.501 171.649C274.963 172.262 274.463 172.909 274.005 173.584C273.294 174.429 272.551 175.244 271.803 176.058C271.174 176.739 270.334 177.492 269.438 177.23L269.095 175.971C268.49 175.684 268.029 176.59 268.045 177.256C268.081 179.238 269.038 180.554 270.032 182.162C271.459 184.341 272.567 186.714 273.319 189.208C273.626 190.355 273.801 191.614 274.082 192.833C274.456 194.472 275.475 196.254 276.33 197.657C276.397 196.658 277.313 186.227 277.021 186.156C278.18 186.435 279.355 186.639 280.539 186.765C284.81 187.277 289.245 187.144 293.254 185.628C295.525 184.698 297.607 183.362 299.399 181.685C300.446 183.739 301.947 185.526 303.787 186.914C304.265 187.209 304.674 187.604 304.986 188.071C305.188 188.586 305.285 189.136 305.272 189.689C306.179 199.265 309.036 202.179 310.004 201.098C310.112 199.756 310.004 198.087 310.173 196.756C310.291 194.108 311.008 192.29 311.602 190.012C313.317 183.278 309.835 175.535 304.013 171.838Z" fill="#28527C"/>
<path d="M250.506 257.953C250.506 257.953 232.323 292.539 233.301 296.697C234.279 300.855 243.814 303.866 264.112 299.672C284.411 295.478 286.643 294.311 286.643 294.311L283.678 288.166C283.678 288.166 252.375 293.286 253.108 289.262C253.84 285.237 268.029 268.599 268.029 268.599L250.506 257.953Z" fill="#FFE3CA"/>
<path d="M336.007 295.606C334.911 287.413 333.887 279.102 332.694 270.822C332.284 268.046 331.863 265.271 331.429 262.496C330.968 259.654 330.528 256.745 330.047 253.79C328.695 245.597 327.384 235.392 323.938 227.926C323.834 227.704 323.753 227.472 323.697 227.234C323.523 227.193 311.709 222.907 308.027 222.626C308.13 225.345 309.774 236.032 300.479 235.602C292.716 235.243 293.346 226.779 293.193 222.626C288.277 223.071 277.539 227.301 277.503 227.311C274.886 227.869 273.181 243.257 272.894 245.234C271.547 253.888 270.037 262.362 268.915 271.022L268.885 271.272C268.029 277.929 267.241 284.586 266.462 291.274C265.056 303.311 263.69 315.353 262.366 327.401C262.294 328.031 262.228 328.655 262.156 329.28L340.559 329.49C339.033 318.207 337.516 306.913 336.007 295.606Z" fill="#29517C"/>
<path d="M336.007 295.606C334.911 287.413 333.887 279.102 332.694 270.822C332.284 268.046 331.863 265.271 331.429 262.496C330.968 259.654 330.528 256.745 330.047 253.79C328.695 245.597 327.384 235.392 323.938 227.926C323.834 227.704 323.753 227.472 323.697 227.234C323.625 227.234 321.695 226.522 319.17 225.698C319.201 225.862 319.226 226.033 319.247 226.21C319.247 226.389 319.247 226.891 319.344 227.045C319.314 227.004 319.186 225.99 319.314 226.794C319.38 227.193 319.442 227.593 319.508 227.987C319.662 228.885 319.832 229.778 320.02 230.665C320.414 232.544 320.855 234.419 321.295 236.298C322.278 240.451 323.277 244.609 323.938 248.828C325.079 256.059 325.72 264.37 321.751 270.919C318.013 277.064 310.557 279.993 303.992 282.011C301.166 282.881 298.288 283.578 295.43 284.351C290.904 285.575 286.449 287.06 281.978 288.478C276.76 290.132 271.532 291.72 266.237 293.015C264.896 304.496 263.592 315.98 262.325 327.467C262.253 328.097 262.187 328.722 262.115 329.347L340.518 329.557C339.02 318.23 337.516 306.913 336.007 295.606Z" fill="#28527C"/>
<path d="M277.503 227.332L277.641 227.301C274.743 228.197 269.422 231.566 266.601 233.159C261.956 235.776 258.075 239.975 255.064 245.019C252.353 249.699 250.247 254.704 248.796 259.915C250.263 262.518 252.301 264.755 254.757 266.459C258.28 268.896 265.356 271.482 266.058 271.79C267.625 268.794 269.079 266.976 269.699 265.373C270.646 259.06 271.87 251.635 272.858 245.275C273.191 243.277 274.886 227.89 277.503 227.332Z" fill="#29517C"/>
<path d="M287.017 287.316C287.017 287.316 328.853 289.779 340.042 290.741C346.151 291.351 342.946 287.828 335.807 272.517C329.237 260.437 352.004 260.002 352.004 260.002C352.004 260.002 361.001 285.262 362.835 291.694C365.574 301.311 357.263 303.984 355.338 303.984C319.027 304.27 287.678 294.613 287.678 294.613C287.678 294.613 281.625 288.166 287.017 287.316Z" fill="#FFE3CA"/>
<path d="M341.02 283.496C342.899 282.666 344.65 281.575 346.223 280.254C349.807 277.182 352.368 273.147 354.928 269.158C352.777 263.013 350.98 257.959 350.98 257.959C350.98 257.959 328.213 258.389 334.768 270.469C337.569 276.47 339.761 280.654 341.02 283.496Z" fill="#FCD2B1"/>
<path d="M346.458 244.348C343.453 239.227 339.566 234.977 334.921 232.324C331.849 230.552 323.523 227.204 323.697 227.26C323.753 227.49 328.695 245.613 330.047 253.816C330.528 256.745 330.006 258.092 330.466 260.934C330.912 263.694 335.869 274.621 338.209 277.499C341.338 276.619 346.914 273.065 349.039 271.416C351.063 269.921 352.842 268.121 354.314 266.08C352.767 260.708 349.162 248.941 346.458 244.348Z" fill="#28527C"/>
<path d="M345.721 268.963C348.535 267.341 351.127 265.361 353.433 263.074C352.977 261.569 352.455 259.879 351.897 258.117C346.551 262.904 340.379 266.678 333.682 269.255C334.374 270.74 335.106 272.225 335.807 273.546C339.428 272.635 342.495 270.894 345.721 268.963Z" fill="#29527C"/>
<path d="M306.476 299.267H246.953C246.72 299.249 246.496 299.172 246.301 299.043C246.107 298.914 245.949 298.737 245.841 298.53L228.431 261.922C228.236 261.518 228.431 261.19 228.841 261.19H288.384C288.617 261.207 288.841 261.283 289.035 261.411C289.23 261.539 289.388 261.715 289.496 261.922L306.906 298.53C307.096 298.919 306.911 299.267 306.476 299.267Z" fill="#F7F7F7"/>
<path d="M273.227 281.319C274.251 283.501 272.418 285.267 269.1 285.267C265.781 285.267 262.253 283.501 261.214 281.319C260.174 279.138 262.028 277.371 265.346 277.371C268.664 277.371 272.193 279.138 273.227 281.319Z" fill="#D3D3D3"/>
<path d="M246.195 299.267H337.118C337.199 299.267 337.279 299.283 337.353 299.314C337.428 299.345 337.496 299.39 337.553 299.447C337.61 299.505 337.655 299.572 337.686 299.647C337.717 299.721 337.733 299.801 337.733 299.882V301.024C337.733 301.105 337.717 301.184 337.686 301.259C337.655 301.334 337.61 301.401 337.553 301.458C337.496 301.515 337.428 301.561 337.353 301.592C337.279 301.622 337.199 301.638 337.118 301.638H247.71C247.303 301.638 246.912 301.477 246.624 301.188C246.336 300.9 246.174 300.51 246.174 300.102V299.247L246.195 299.267Z" fill="#F2F0F0"/>
<path d="M337.118 299.267H307.167V301.638H337.118C337.199 301.638 337.279 301.622 337.353 301.592C337.428 301.561 337.496 301.515 337.553 301.458C337.61 301.401 337.655 301.334 337.686 301.259C337.717 301.184 337.733 301.105 337.733 301.024V299.882C337.733 299.801 337.717 299.721 337.686 299.647C337.655 299.572 337.61 299.505 337.553 299.447C337.496 299.39 337.428 299.345 337.353 299.314C337.279 299.283 337.199 299.267 337.118 299.267Z" fill="#F2F0F0"/>
<path d="M300.106 235.351C300.106 235.351 309.323 240.604 310.439 240.983C311.556 241.362 313.763 241.05 314.065 238.669C314.367 236.288 316.374 224.843 316.374 224.843L307.818 219.379C307.818 219.379 308.524 227.419 306.563 230.302C304.602 233.185 300.106 235.351 300.106 235.351Z" fill="#29527C"/>
<path d="M301.355 235.392C301.355 235.392 292.169 240.645 291.027 241.024C289.885 241.403 287.703 241.091 287.396 238.71C287.089 236.329 285.291 224.587 285.291 224.587L293.244 220.306C293.244 220.306 292.926 227.475 294.903 230.373C296.88 233.272 301.355 235.392 301.355 235.392Z" fill="#29527C"/>
<path d="M424.171 301.695H52.0475V309.033H424.171V301.695Z" fill="#492817"/>
<path d="M390.661 309.028H70.4105V372.775L293 385L390.661 372.775V309.028Z" fill="#D3D3D3"/>
<path d="M390.661 372.775L76.6526 309.033H390.661V372.775Z" fill="#F2F2F2"/>
<path d="M81.7068 372.658C80.8363 360.998 79.7711 349.271 78.491 336.961C77.9789 332.178 77.4668 327.329 75.7514 322.843C70.4309 309.017 53.0358 301.254 39.0511 306.6C27.6524 310.958 19.8126 322.07 17.667 332.885C15.1066 345.82 13.9647 359.16 13.7189 372.658H81.7068Z" fill="#C33532"/>
<path d="M43.2706 372.658C49.6203 356.072 59.1449 341.201 75.777 334.841C76.5541 334.55 77.3539 334.324 78.1684 334.165C77.728 330.304 77.1442 326.459 75.736 322.843C70.4156 309.017 53.0205 301.254 39.0358 306.6C27.6524 310.958 19.8126 322.07 17.667 332.885C15.1066 345.82 13.9647 359.16 13.7189 372.658H43.2706Z" fill="#C33532"/>
<path d="M124.731 285.283C124.705 285.354 124.705 285.432 124.731 285.503C124.779 285.564 124.845 285.607 124.921 285.626C126.703 286.215 128.305 286.194 130.164 286.45C130.881 286.553 131.813 286.768 132.525 286.921C133.237 287.075 133.815 287.761 134.46 287.981C136.502 288.689 138.606 289.204 140.744 289.518C141.893 289.75 143.079 289.731 144.221 289.461C144.651 289.338 149.003 286.998 149.152 286.901C150.005 286.303 150.793 285.616 151.502 284.853C151.517 284.811 151.529 284.768 151.538 284.725C154.646 292.718 156.254 290.803 156.254 290.803C156.254 290.803 154.006 279.445 153.499 279.184C152.992 278.923 150.319 277.796 150.319 277.796L144.072 276.26C143.839 276.154 143.595 276.073 143.345 276.019C143.196 276.019 143.043 276.019 142.889 275.978H142.807C140.544 275.794 138.04 276.921 135.833 277.105C132.534 277.437 129.341 278.451 126.457 280.085C125.709 280.531 125.704 281.391 125.504 282.18C125.248 283.214 124.992 284.248 124.731 285.283Z" fill="#FCD2B1"/>
<path d="M129.637 278.298C116.323 282.256 93.6739 287.244 84.431 277.09C80.3652 272.624 74.2664 260.12 69.7294 247.901C69.1508 246.365 68.1061 243.103 66.657 239.125C65.5919 238.536 64.5268 237.947 63.4412 237.399C60.5992 235.965 57.0403 234.245 53.7527 234.9C48.9393 235.863 47.0395 240.666 46.425 245.321C52.3138 258.875 64.3475 285.344 69.8984 291.008C71.7033 292.862 73.7743 294.438 76.0433 295.683C80.8414 298.3 86.341 299.206 91.7588 298.976C97.3916 298.74 102.917 297.383 108.212 295.54C113.256 293.783 118.09 292.534 122.821 290.076C124.762 289.052 127.988 288.028 129.898 286.978C130.215 283.014 130.461 280.592 129.637 278.298Z" fill="#28527C"/>
<path d="M32.5478 296.984C32.7373 292.088 32.133 287.203 31.5237 282.343C30.6122 274.995 29.6393 267.442 26.0394 260.98C23.5097 256.438 19.0752 234.818 27.2018 223.691C30.2742 219.476 49.8456 221.494 60.6196 225.099C70.349 228.361 68.3571 230.368 74.4456 245.418C76.6936 248.741 79.4076 253.099 80.9438 256.888C83.3557 262.818 76.5246 275.18 74.0001 279.42C74.3022 288.734 75.439 296.789 74.3483 309.278C74.1281 311.767 80.5751 338.63 79.3564 340.807C72.2437 353.506 41.9444 343.879 39.3277 333.126C32.3072 342.758 15.9567 337.366 16.0079 336.808C17.5851 320.314 32.2662 304.219 32.5478 296.984Z" fill="#29527C"/>
<path d="M65.1412 237.645C66.1039 236.769 65.7557 234.859 65.7199 233.743L65.5355 227.869C65.4894 226.287 61.8486 225.509 60.6299 225.099C52.6876 222.441 39.9831 220.649 32.6144 221.581C34.5193 222.718 36.1989 224.382 37.9399 225.606C38.0065 225.652 38.0526 225.703 38.1089 225.749C38.3119 225.806 38.504 225.896 38.6773 226.016C40.9305 227.552 42.6766 229.462 45.2011 230.558C48.4528 231.971 51.7454 233.318 54.9305 234.844C56.5725 235.591 58.2586 236.238 59.9795 236.779C61.1624 237.174 63.4616 238.459 64.6804 237.931C64.851 237.866 65.0075 237.769 65.1412 237.645Z" fill="#FFE3CA"/>
<path d="M122.734 293.445C122.719 293.483 122.714 293.524 122.72 293.564C122.725 293.604 122.74 293.643 122.764 293.675C122.788 293.708 122.82 293.734 122.857 293.751C122.894 293.768 122.934 293.776 122.975 293.773C124.885 294.157 126.559 293.927 128.485 293.952C129.237 293.952 130.226 294.065 130.978 294.136C131.731 294.208 132.417 294.833 133.109 294.981C135.3 295.437 137.528 295.691 139.766 295.739C140.983 295.829 142.206 295.655 143.35 295.227C143.775 295.043 147.959 292.073 148.107 291.981C148.921 291.251 149.654 290.435 150.294 289.548C150.296 289.504 150.296 289.46 150.294 289.415C154.529 297.255 155.927 295.048 155.927 295.048C155.927 295.048 152.147 283.629 151.594 283.429C151.041 283.229 148.133 282.405 148.133 282.405L141.501 281.652C141.246 281.575 140.984 281.523 140.718 281.499C140.564 281.499 140.401 281.499 140.242 281.499H140.155C137.799 281.601 135.362 283.081 133.114 283.547C129.754 284.312 126.591 285.768 123.825 287.823C123.113 288.381 123.215 289.272 123.113 290.106L122.734 293.445Z" fill="#FFE3CA"/>
<path d="M32.2355 225.949C44.5252 224.659 58.1463 256.09 61.2136 261.983C67.466 273.992 75.3673 286.102 80.1296 290.183C90.965 299.462 113.681 291.407 126.892 285.616C128.034 287.879 128.095 290.404 128.295 294.531C126.467 295.883 123.272 297.342 121.403 298.627C116.835 301.771 112.016 303.682 107.065 306.139C101.841 308.7 96.3111 310.835 90.54 311.772C84.984 312.704 79.1976 312.479 73.913 310.4C71.4125 309.406 69.0726 308.048 66.9693 306.37C58.6891 299.8 35.0621 259.367 32.5837 254.84C23.8119 238.863 24.2215 226.794 32.2355 225.949Z" fill="#29517C"/>
<path d="M36.1016 188.557C36.7519 186.335 38.0168 184.353 39.3174 182.443C40.6181 180.533 41.9136 178.741 43.6752 177.353C45.8207 175.658 48.4682 174.731 51.1053 174.025C56.3848 172.617 62.2788 172.023 67.0769 174.634C68.2299 175.2 69.2057 176.072 69.8984 177.154C70.3295 177.994 70.6283 178.895 70.7843 179.827C72.0184 185.459 72.8889 191.241 72.5458 197.007C72.2027 202.773 70.5897 208.564 67.2203 213.255C66.2627 214.581 65.131 215.846 63.6357 216.506C62.4191 216.971 61.1228 217.192 59.8208 217.157C59.3958 217.157 58.9759 217.131 58.556 217.126C58.1463 219.574 57.7879 222.098 57.3885 224.807C59.8618 225.447 62.3914 226.215 62.6218 226.717C63.1595 227.89 63.7535 233.543 62.6884 235.166C57.3731 232.693 48.9854 229.37 43.6803 227.634C42.5486 227.265 42.4923 226.154 42.3233 224.976C42.2567 224.495 42.3233 224.976 44.5406 224.464C44.433 222.037 44.0643 217.807 43.7622 213.813C41.7395 212.937 39.7578 211.811 38.6415 210.331C37.6571 208.905 36.9805 207.29 36.6546 205.589C35.8363 201.955 35.4394 198.238 35.4718 194.513C35.3928 192.508 35.6049 190.502 36.1016 188.557Z" fill="#FFE3CA"/>
<path d="M70.3029 171.024C64.3629 166.994 57.5011 164.075 50.3321 163.676C43.1631 163.276 35.6817 165.622 30.7095 170.804C25.9984 175.715 23.9757 183.298 26.2647 189.664C25.3733 189.531 24.4715 189.483 23.5712 189.52C21.1953 189.551 18.8615 190.152 16.7658 191.271C11.5989 194.18 10.5441 202.025 13.4168 207.238C13.4168 207.289 13.4168 207.34 13.381 207.391C11.1176 208.288 9.34582 210.295 8.7723 213.767C8.19366 217.438 10.0371 221.509 13.4117 223.066C14.5272 223.541 15.7304 223.776 16.9427 223.755C18.1551 223.734 19.3493 223.457 20.4476 222.943C21.2874 226.528 24.7336 229.119 28.3386 230.051C31.2778 230.812 34.3738 230.715 37.2594 229.771C40.1451 228.826 42.6993 227.074 44.6193 224.722C46.5392 222.37 47.7443 219.516 48.0915 216.5C48.4388 213.483 47.9138 210.431 46.5786 207.704C45.3957 205.287 43.6188 203.208 42.3233 200.847C39.2509 195.281 41.079 192.142 45.1295 190.529C45.1578 190.542 45.1852 190.558 45.2114 190.575C45.7951 191.041 48.9341 196.766 48.5603 197.109C49.4001 196.341 49.4513 195.061 49.6766 193.955C50.0965 191.906 51.2129 190.186 52.6313 188.614C56.2824 187.549 59.022 185.971 62.9496 182.981C66.8772 179.99 71.0249 175.884 70.3029 171.024Z" fill="#C33532"/>
<path d="M192.622 300.829H164.811V298.617H192.622C193.098 298.617 204.486 298.284 207.334 279.158C210.334 258.962 222.911 178.92 223.039 178.116L225.22 178.459C225.092 179.263 212.521 259.295 209.515 279.481C206.376 300.583 193.18 300.829 192.622 300.829Z" fill="#CCC6C6"/>
<path d="M160.817 298.617H133.242V300.824H160.817V298.617Z" fill="#CCC6C6"/>
<path d="M208.788 271.267C213.028 243.477 223.182 178.854 223.295 178.126L221.113 177.783C221.001 178.49 210.764 243.615 206.555 271.267H208.788Z" fill="#28527C"/>
<path d="M216.74 262.393C220.243 239.862 224.063 215.349 227.53 193.187C227.573 192.912 227.562 192.631 227.496 192.361C227.43 192.091 227.312 191.837 227.147 191.613C226.982 191.389 226.774 191.2 226.536 191.057C226.297 190.914 226.033 190.82 225.758 190.78C224.939 190.667 224.119 190.57 223.295 190.493C219.633 213.915 215.552 240.031 211.855 263.868C212.603 263.991 213.35 264.119 214.098 264.257C214.394 264.313 214.699 264.309 214.994 264.244C215.288 264.18 215.567 264.058 215.813 263.884C216.06 263.71 216.269 263.489 216.428 263.233C216.587 262.976 216.693 262.691 216.74 262.393Z" fill="white"/>
<path d="M185.079 205.722H159.967C152.897 205.722 147.165 211.454 147.165 218.524V230.952C147.165 238.022 152.897 243.754 159.967 243.754H185.079C192.149 243.754 197.881 238.022 197.881 230.952V218.524C197.881 211.454 192.149 205.722 185.079 205.722Z" fill="#28527C"/>
<path d="M168.677 214.489L181.08 223.056C181.267 223.185 181.422 223.358 181.53 223.558C181.639 223.759 181.699 223.982 181.705 224.21C181.711 224.438 181.663 224.665 181.565 224.871C181.467 225.077 181.322 225.257 181.141 225.396L168.728 234.946C168.514 235.11 168.258 235.211 167.989 235.237C167.721 235.264 167.45 235.215 167.208 235.095C166.965 234.976 166.761 234.792 166.618 234.563C166.475 234.333 166.399 234.069 166.398 233.799V215.677C166.398 215.412 166.471 215.152 166.609 214.926C166.746 214.699 166.943 214.514 167.178 214.392C167.413 214.27 167.677 214.214 167.941 214.231C168.205 214.248 168.46 214.337 168.677 214.489Z" fill="#F2F2F2"/>
<path d="M116.94 113.072C113.024 100.788 115.01 86.7346 122.088 76.6454C124.695 72.9223 128.009 69.6778 132.043 67.865C135.565 66.2724 139.471 65.8403 143.311 65.4422C163.661 63.3554 184.072 61.8405 204.544 60.8974C208.692 60.7068 213.101 60.6009 216.77 62.8415C221.511 65.7344 223.729 71.7363 225.213 77.3146C228.1 88.179 229.356 100.699 223.317 109.632C216.595 119.595 203.573 121.369 191.982 122.339L155.622 125.359C150.654 125.783 144.771 125.402 143.183 130.548C141.467 136.126 148.725 141.061 135.783 136.054C127.492 132.848 119.471 121.001 116.94 113.072Z" fill="#FFB750"/>
<path d="M268.07 129.614C268.07 123.135 268.006 116.528 265.721 110.369C263.436 104.209 258.505 98.4692 251.543 96.482C244.103 94.3771 236.403 96.595 229.223 98.4268C222.697 100.094 216.23 101.017 209.507 101.761C202.02 102.589 194.096 103.974 188.027 108.188C177.123 115.723 176.155 129.073 182.012 139.484C183.099 141.582 184.635 143.474 186.534 145.055C190.286 147.97 195.233 147.517 199.894 147.795C205.786 148.144 211.683 148.401 217.585 148.568C228.49 148.881 239.396 148.881 250.305 148.568C251.899 151.431 254.7 154.651 259.195 155.325C266.104 156.356 259.302 153.648 258.563 147.508C266.263 144.946 268.097 137.869 268.07 129.614Z" fill="#29527C"/>
<path d="M112.324 163.63C111.109 163.726 109.94 164.14 108.935 164.829C107.929 165.518 107.122 166.459 106.594 167.558C106.066 168.657 105.836 169.874 105.925 171.09C106.015 172.306 106.422 173.476 107.106 174.486L98.1238 181.081C97.0798 180.099 95.7585 179.463 94.3398 179.258C92.9211 179.054 91.4739 179.292 90.1952 179.939C88.9164 180.586 87.8681 181.612 87.193 182.877C86.5179 184.141 86.2488 185.583 86.4222 187.005C86.5957 188.428 87.2032 189.763 88.1623 190.828C89.1214 191.893 90.3853 192.637 91.7822 192.958C93.179 193.28 94.6409 193.163 95.969 192.624C97.297 192.084 98.4267 191.149 99.2043 189.945L108.032 193.591C107.89 194.248 107.845 194.923 107.899 195.593C108.027 197.249 108.738 198.806 109.907 199.986C111.076 201.166 112.626 201.892 114.281 202.035C115.936 202.178 117.587 201.728 118.941 200.766C120.295 199.804 121.263 198.393 121.673 196.783C122.082 195.173 121.906 193.471 121.177 191.979C120.447 190.487 119.211 189.302 117.69 188.637C116.168 187.972 114.459 187.869 112.868 188.347C111.278 188.825 109.909 189.852 109.005 191.246L100.172 187.605C100.315 186.946 100.36 186.27 100.305 185.598C100.234 184.739 100.005 183.9 99.6293 183.124L108.908 176.314C109.827 176.952 110.886 177.36 111.996 177.503C113.106 177.647 114.234 177.521 115.285 177.137C116.337 176.752 117.28 176.121 118.036 175.296C118.792 174.471 119.338 173.476 119.629 172.395C119.92 171.315 119.947 170.18 119.707 169.087C119.468 167.994 118.969 166.974 118.252 166.114C117.536 165.254 116.624 164.579 115.592 164.146C114.56 163.713 113.439 163.534 112.324 163.625V163.63Z" fill="#29527C"/>
<path d="M340.421 81.3294C350.424 81.3294 358.533 73.0233 358.533 62.7771C358.533 52.5309 350.424 44.2247 340.421 44.2247C330.418 44.2247 322.309 52.5309 322.309 62.7771C322.309 73.0233 330.418 81.3294 340.421 81.3294Z" fill="white"/>
<path d="M363.618 45.8582C363.618 41.4851 360.643 38.4843 356.285 38.4843H324.537C324.022 38.4686 323.508 38.5047 323 38.5919C321.358 38.8782 319.872 39.7439 318.813 41.0321C317.754 42.3202 317.192 43.9453 317.229 45.6124C317.229 52.7046 317.275 59.7917 317.286 66.8839C317.286 70.3865 317.224 73.8942 317.224 77.3967C317.224 81.8466 320.169 84.8064 324.608 84.8269C327.87 84.8269 331.127 84.8269 334.389 84.8269C334.686 84.7877 334.988 84.8531 335.242 85.0119C335.496 85.1708 335.687 85.4131 335.782 85.6974C337.077 88.5753 338.434 91.4275 339.771 94.29C339.919 94.6024 340.088 94.9045 340.385 95.478C340.723 94.8994 340.949 94.5614 341.118 94.2029C342.444 91.3712 343.78 88.5445 345.066 85.6974C345.159 85.413 345.349 85.1702 345.602 85.0111C345.856 84.8521 346.157 84.7869 346.453 84.8269C349.813 84.8627 353.172 84.8781 356.526 84.8269C360.668 84.7757 363.608 81.7545 363.608 77.6016C363.608 73.1568 363.608 68.712 363.608 64.2877C363.601 58.1326 363.604 51.9894 363.618 45.8582ZM340.421 75.7837C337.551 75.7827 334.746 74.9307 332.36 73.3355C329.974 71.7403 328.115 69.4734 327.017 66.8216C325.92 64.1697 325.633 61.252 326.194 58.4373C326.754 55.6225 328.137 53.0372 330.166 51.0081C332.196 48.9791 334.782 47.5974 337.597 47.0379C340.412 46.4784 343.33 46.7661 345.981 47.8646C348.632 48.9631 350.899 50.8232 352.493 53.2096C354.087 55.596 354.938 58.4016 354.938 61.2716C354.938 63.1778 354.563 65.0653 353.833 66.8263C353.104 68.5873 352.034 70.1874 350.686 71.535C349.338 72.8826 347.738 73.9515 345.976 74.6805C344.215 75.4095 342.327 75.7844 340.421 75.7837Z" fill="#28527C"/>
<path d="M334.199 60.0426C334.696 60.0436 335.182 59.8972 335.595 59.6219C336.009 59.3465 336.331 58.9547 336.522 58.496C336.712 58.0373 336.762 57.5324 336.666 57.0452C336.569 56.558 336.33 56.1104 335.979 55.7592C335.628 55.408 335.18 55.1689 334.693 55.0723C334.206 54.9756 333.701 55.0257 333.242 55.2163C332.783 55.4068 332.392 55.7292 332.116 56.1426C331.841 56.556 331.694 57.0419 331.695 57.5386C331.695 58.2027 331.959 58.8396 332.429 59.3092C332.898 59.7788 333.535 60.0426 334.199 60.0426Z" fill="#28527C"/>
<path d="M346.955 55.0294C346.459 55.0294 345.974 55.1766 345.561 55.4523C345.149 55.728 344.827 56.1199 344.637 56.5784C344.447 57.0368 344.397 57.5413 344.494 58.0281C344.591 58.5148 344.83 58.9619 345.181 59.3128C345.532 59.6637 345.979 59.9027 346.466 59.9995C346.952 60.0963 347.457 60.0466 347.915 59.8567C348.374 59.6668 348.766 59.3452 349.041 58.9326C349.317 58.5199 349.464 58.0348 349.464 57.5386C349.464 56.8731 349.2 56.2349 348.729 55.7643C348.259 55.2938 347.621 55.0294 346.955 55.0294Z" fill="#28527C"/>
<path d="M348.297 64.4976C348.224 64.4549 348.144 64.427 348.061 64.4157C347.978 64.4045 347.893 64.41 347.812 64.4319C347.731 64.4539 347.655 64.4918 347.589 64.5436C347.522 64.5953 347.467 64.6598 347.426 64.7332C346.706 65.9989 345.663 67.0513 344.404 67.7834C343.144 68.5155 341.714 68.9011 340.257 68.9011C338.801 68.9011 337.37 68.5155 336.111 67.7834C334.852 67.0513 333.809 65.9989 333.088 64.7332C333.002 64.5901 332.863 64.4864 332.701 64.4443C332.54 64.4023 332.368 64.4251 332.223 64.5081C332.077 64.591 331.971 64.7274 331.925 64.8881C331.879 65.0488 331.898 65.2211 331.977 65.3681C332.81 66.8297 334.014 68.0448 335.469 68.8901C336.923 69.7353 338.575 70.1805 340.257 70.1805C341.939 70.1805 343.592 69.7353 345.046 68.8901C346.5 68.0448 347.705 66.8297 348.537 65.3681C348.621 65.2207 348.642 65.0463 348.597 64.8832C348.552 64.7201 348.444 64.5814 348.297 64.4976Z" fill="#28527C"/>
<path d="M391.162 151.371C393.149 149.804 394.045 147.663 393.211 145.917C392.924 145.377 392.523 144.907 392.036 144.538C391.549 144.169 390.987 143.911 390.389 143.782C392.268 142.082 392.996 139.66 392.007 137.57C391.019 135.481 388.556 134.293 385.893 134.421C386.159 133.397 386.083 132.05 384.987 130.427C379.61 125.275 369.22 132.598 369.22 132.598C370.439 127.267 365.83 115.116 360.894 117.19C355.957 119.264 359.701 125.229 359.701 125.229L353.996 140.837C353.858 141.222 353.869 141.644 354.027 142.02L365.426 168.684C365.521 168.915 365.704 169.098 365.934 169.194C366.165 169.29 366.424 169.291 366.655 169.196C370.864 167.455 383.84 163.727 389.406 160.824C391.296 159.835 394.219 156.922 392.862 153.455C392.521 152.603 391.928 151.876 391.162 151.371Z" fill="white"/>
<path d="M364.78 172.355L356.485 175.843C355.912 176.083 355.266 176.086 354.691 175.852C354.115 175.618 353.655 175.165 353.412 174.593L340.426 143.249L351.63 141.047C353.382 140.965 354.191 141.114 354.703 142.297L366.045 169.293C366.283 169.867 366.283 170.512 366.046 171.086C365.809 171.66 365.354 172.117 364.78 172.355Z" fill="#29527C"/>
<path d="M326.332 139.855C327.506 130.902 321.2 122.692 312.246 121.518C303.293 120.344 295.083 126.65 293.909 135.604C292.735 144.557 299.041 152.767 307.995 153.941C316.948 155.115 325.158 148.809 326.332 139.855Z" fill="#28527C"/>
<path d="M313.102 131.425C313.102 131.425 310.096 131.426 309.518 135.409C309.103 131.415 305.933 131.425 305.933 131.425C305.933 131.425 300.915 131.4 300.915 136.413C300.915 141.426 309.548 145.241 309.548 145.241C309.548 145.241 318.126 141.426 318.126 136.413C318.12 130.96 313.102 131.425 313.102 131.425Z" fill="white"/>
<path d="M394.342 314.865C394.342 314.865 383.051 314.604 383.036 324.554C383.02 334.503 390.297 340.94 390.297 340.94L394.342 314.865Z" fill="#FCD2B1"/>
<path d="M401.102 231.326C401.102 231.326 393.083 236.846 390.261 274.34C387.44 311.834 387.865 342.701 388.407 342.819C388.95 342.937 399.832 344.842 399.832 344.842L408.424 285.897L401.102 231.326Z" fill="#FCD2B1"/>
<path d="M412.797 223.245C412.797 223.245 394.552 227.741 390.968 253.401L406.842 253.913L412.797 223.245Z" fill="#C33532"/>
<path d="M412.311 372.658L424.114 334.175L423.838 372.658H460.195C462.699 355.816 464.563 340.592 464.804 331.252C465.648 299.503 452.135 287.833 452.135 287.833H405.306C392.827 297.485 384.208 351.448 384.208 351.448L380.112 372.658H412.311Z" fill="#29527C"/>
<path d="M431.934 221.11C431.934 221.11 450.834 224.925 456.114 235.663L454.183 287.321L405.162 288.166L403.15 230.814C403.15 230.814 410.355 223.43 420.873 220.454L431.934 221.11Z" fill="#C33532"/>
<path d="M447.009 235.852C445.386 223.952 474.84 260.565 456.001 297.383C449.856 307.112 433.47 288.616 433.47 288.616L445.857 279.737L447.009 235.852Z" fill="#FFE3CA"/>
<path d="M425.922 221.622C425.922 221.622 462.146 221.11 463.472 254.395L440.009 255.864L425.922 221.622Z" fill="#C33532"/>
<path d="M448.069 276.101L402.259 270.591L399.258 279.522L442.559 297.562C444.271 298.237 446.123 298.478 447.95 298.265C449.778 298.051 451.524 297.389 453.034 296.337C454.543 295.285 455.77 293.877 456.604 292.237C457.438 290.597 457.853 288.776 457.814 286.937C457.757 284.263 456.742 281.698 454.953 279.71C453.165 277.721 450.722 276.441 448.069 276.101Z" fill="#FFE3CA"/>
<path d="M404.717 271.267L400.375 265.471C399.022 263.655 397.064 262.383 394.854 261.886L389.001 260.565L394.941 273.485L404.717 271.267Z" fill="#FFE3CA"/>
<path d="M384.707 276.953L396.5 272.902C396.906 272.762 397.123 272.319 396.983 271.913L389.35 249.694C389.21 249.287 388.767 249.071 388.361 249.21L376.568 253.262C376.161 253.401 375.945 253.844 376.085 254.251L383.718 276.47C383.858 276.877 384.301 277.093 384.707 276.953Z" fill="#29527C"/>
<path d="M404.717 271.267L395.254 266.853L382.145 267.913C381.999 267.893 381.85 267.904 381.709 267.946C381.567 267.988 381.437 268.06 381.326 268.157C381.215 268.255 381.127 268.375 381.066 268.509C381.006 268.644 380.976 268.79 380.977 268.937C381.238 272.066 382.698 280.341 390.814 281.637C400.856 283.24 405.034 280.152 405.034 280.152L404.717 271.267Z" fill="#FFE3CA"/>
<path d="M409.203 194.513C409.204 195.717 408.847 196.895 408.179 197.897C407.51 198.899 406.559 199.681 405.447 200.142C404.334 200.604 403.109 200.725 401.928 200.49C400.746 200.255 399.661 199.675 398.809 198.823C397.957 197.971 397.377 196.886 397.142 195.704C396.908 194.523 397.029 193.298 397.49 192.186C397.952 191.073 398.733 190.122 399.735 189.453C400.737 188.785 401.915 188.428 403.119 188.429C404.733 188.429 406.28 189.07 407.421 190.211C408.562 191.352 409.203 192.899 409.203 194.513Z" fill="#FCD2B1"/>
<path d="M400.067 187.559C402.003 200.53 410.693 211.299 423.807 211.299C430.103 211.299 436.141 208.797 440.594 204.345C445.046 199.893 447.547 193.855 447.547 187.559C447.547 181.263 445.046 175.224 440.594 170.772C436.141 166.32 430.103 163.819 423.807 163.819C410.693 163.819 397.927 173.277 400.067 187.559Z" fill="#28527C"/>
<path d="M432.579 220.695L432.482 196.356L415.035 196.438L415.127 220.772C415.127 221.92 415.354 223.056 415.795 224.116C416.236 225.176 416.883 226.138 417.697 226.947C418.511 227.757 419.478 228.397 420.54 228.831C421.603 229.265 422.741 229.485 423.889 229.477C425.037 229.475 426.174 229.246 427.233 228.803C428.293 228.36 429.254 227.711 430.062 226.895C430.87 226.079 431.508 225.111 431.94 224.046C432.372 222.982 432.589 221.843 432.579 220.695Z" fill="#FFE3CA"/>
<path d="M433.106 197.657C433.106 197.657 431.273 218.503 415.148 218.171L415.117 207.729L433.106 197.657Z" fill="#FCD2B1"/>
<path d="M429.624 221.479C429.624 221.479 430.223 220.521 438.078 223.133C438.078 223.133 436.112 229.114 427.325 230.742C423.705 231.413 420.217 230.286 416.817 228.863C414.554 227.91 411.384 224.894 410.811 224.029C410.811 224.029 415.767 221.325 418.804 220.956C421.841 220.588 429.624 221.479 429.624 221.479Z" fill="#FFE3CA"/>
<path d="M418.195 214.586C408.849 214.586 401.199 208.953 401.199 199.603V183.529C401.199 176.631 407.129 173.843 411.195 173.843L427.791 173.569C429.75 173.576 431.627 174.357 433.012 175.742C434.397 177.128 435.179 179.004 435.185 180.963V196.976C435.185 206.321 426.075 214.586 418.195 214.586Z" fill="#FFE3CA"/>
<path d="M429.307 172.719C429.307 172.719 423.1 189.479 433.106 194.513L442.687 179.248L429.307 172.719Z" fill="#28527C"/>
<path d="M442.687 194.513C442.688 195.717 442.332 196.895 441.663 197.897C440.995 198.899 440.044 199.681 438.931 200.142C437.818 200.604 436.594 200.725 435.412 200.49C434.231 200.255 433.145 199.675 432.293 198.823C431.442 197.971 430.862 196.886 430.627 195.704C430.392 194.523 430.513 193.298 430.975 192.186C431.436 191.073 432.217 190.122 433.219 189.453C434.221 188.785 435.399 188.428 436.604 188.429C438.217 188.429 439.765 189.07 440.905 190.211C442.046 191.352 442.687 192.899 442.687 194.513Z" fill="#FFE3CA"/>
<path d="M435.083 159.17C431.621 165.955 433.229 173.707 438.667 176.493C444.106 179.279 451.346 176.037 454.813 169.252C458.28 162.467 456.667 154.715 451.229 151.929C445.79 149.143 438.55 152.385 435.083 159.17Z" fill="#28527C"/>
<path d="M435.037 175.51C435.037 175.51 410.969 189.075 395.966 178.198C395.236 177.7 394.614 177.061 394.137 176.317C393.661 175.574 393.338 174.742 393.19 173.871C392.878 171.669 393.815 169.083 400.067 169.355C410.785 169.816 418.133 171.915 423.111 169.355C428.088 166.794 435.037 175.51 435.037 175.51Z" fill="#28527C"/>
<path d="M418.195 170.087C418.195 170.087 408.828 161.141 403.564 164.756C398.299 168.372 411.451 171.132 411.451 171.132L418.195 170.087Z" fill="#28527C"/>
</g>
</svg>
