<svg width="32" height="33" viewBox="0 0 32 33" fill="none" xmlns="http://www.w3.org/2000/svg">
<g clip-path="url(#clip0_2_8189)">
<path d="M16 32.3477C24.6157 32.3477 31.6 25.3633 31.6 16.7477C31.6 8.13206 24.6157 1.14771 16 1.14771C7.38438 1.14771 0.400024 8.13206 0.400024 16.7477C0.400024 25.3633 7.38438 32.3477 16 32.3477Z" stroke="white"/>
<path d="M18.28 14.7397C19.9576 14.7397 20.2664 15.8445 20.2664 17.2797V20.2141H18.6096V17.5245C18.6064 16.9205 18.5568 16.1997 17.7472 16.1997C16.8848 16.1997 16.7528 16.8733 16.7528 17.5693V20.2141H15.0968V14.8733H16.6872V15.6013H16.7112C16.932 15.1821 17.4728 14.7389 18.2792 14.7389L18.28 14.7397ZM14.0576 14.8733V20.2141H12.3984V14.8733H14.0576ZM13.2272 12.2141C13.7576 12.2141 14.1872 12.6445 14.188 13.1749C14.188 13.7053 13.7576 14.1445 13.228 14.1445C12.6968 14.1445 12.2664 13.7053 12.2664 13.1749C12.2664 12.6445 12.6968 12.2149 13.2272 12.2149V12.2141Z" fill="white"/>
</g>
<defs>
<clipPath id="clip0_2_8189">
<rect width="32" height="32" fill="white" transform="translate(0 0.747803)"/>
</clipPath>
</defs>
</svg>
