<svg width="215" height="210" viewBox="0 0 215 210" fill="none" xmlns="http://www.w3.org/2000/svg">
<g clip-path="url(#clip0_30_3291)">
<path d="M120.754 134.842L137.469 145.402C140.441 147.28 143.938 147.855 147.358 147.083C150.778 146.312 153.679 144.246 155.566 141.318L157.611 138.081L159.575 139.322C165.465 143.043 167.233 150.879 163.522 156.812L152.995 173.475C146.056 184.459 149.339 199.006 160.323 205.945C171.308 212.885 185.854 209.602 192.794 198.617L203.364 181.945C205.174 179.08 207.998 177.078 211.288 176.335C214.579 175.592 217.989 176.188 220.854 177.998C223.401 179.607 226.735 178.855 228.344 176.308C229.149 175.034 229.365 173.575 229.053 172.189C228.75 170.847 227.918 169.579 226.644 168.775C221.338 165.422 215.042 164.34 208.894 165.728C202.747 167.115 197.526 170.796 194.174 176.102L183.604 192.775C179.883 198.665 172.047 200.433 166.113 196.722C160.18 193.01 158.454 185.164 162.166 179.231L172.649 162.578C179.588 151.594 176.305 137.047 165.321 130.108L163.358 128.867L165.403 125.631C167.347 122.553 167.826 119.032 167.084 115.742C166.341 112.451 164.353 109.488 161.319 107.534L144.603 96.9737C145.091 91.6766 144.804 86.3725 143.651 81.2638C140.847 68.8384 133.324 57.478 121.756 50.1699L92.5172 31.6984L95.8361 26.445C96.6406 25.1714 96.8572 23.712 96.5446 22.3266C96.2319 20.9412 95.4095 19.7163 94.136 18.9118C91.5889 17.3026 88.2552 18.055 86.6461 20.6021L73.069 42.0932L37.5157 19.6324C34.9686 18.0233 31.635 18.7756 30.0259 21.3227C28.4167 23.8698 29.1691 27.2035 31.7162 28.8126L67.2695 51.2734L46.2935 84.5352L10.7402 62.0744C8.19307 60.4652 4.85942 61.2176 3.25029 63.7647C1.64116 66.3118 2.39349 69.6454 4.94059 71.2546L40.4939 93.7154L26.9168 115.207C25.3077 117.754 26.06 121.087 28.6071 122.696C31.1542 124.306 34.4879 123.553 36.097 121.006L39.4158 115.753L68.6545 134.224C85.0514 144.583 105.153 144.141 120.754 134.842ZM128.062 112.991C116.63 131.086 92.6021 136.509 74.5071 125.078L45.2685 106.606L86.6841 40.9316L115.923 59.4031C134.071 70.8682 139.493 94.8964 128.062 112.991ZM129.94 127.764C132.661 125.103 135.13 122.134 137.242 118.791C139.354 115.448 140.974 111.943 142.209 108.343L155.582 116.791C156.633 117.418 156.946 118.803 156.275 119.864L146.386 135.519C145.95 136.208 145.32 136.442 145.017 136.51C144.671 136.588 144.002 136.648 143.355 136.202L129.94 127.764Z" fill="#A5CCEC"/>
</g>
<defs>
<clipPath id="clip0_30_3291">
<rect width="215" height="215" fill="white"/>
</clipPath>
</defs>
</svg>
