<svg width="10" height="8" viewBox="0 0 10 8" fill="none" xmlns="http://www.w3.org/2000/svg">
<path d="M0.5 3.50024C0.223858 3.50024 0 3.7241 0 4.00024C0 4.27639 0.223858 4.50024 0.5 4.50024H8.29265L5.64645 7.14645C5.45118 7.34171 5.45118 7.65829 5.64645 7.85355C5.84171 8.04882 6.15829 8.04882 6.35355 7.85355L9.84412 4.36298C9.94013 4.27187 10 4.14305 10 4.00024C10 3.96629 9.99662 3.93313 9.99017 3.90108C9.97143 3.80778 9.92589 3.71879 9.85355 3.64645L6.35355 0.146447C6.15829 -0.0488157 5.84171 -0.0488157 5.64645 0.146447C5.45118 0.341708 5.45118 0.658291 5.64645 0.853553L8.29314 3.50024L0.5 3.50024Z" fill="#385F99"/>
</svg>
