<svg width="227" height="168" viewBox="0 0 227 168" fill="none" xmlns="http://www.w3.org/2000/svg">
<path d="M26.2214 59.5969L23.377 61.297L24.9193 64.23L53.2673 118.142C55.5339 122.452 53.9627 128.042 49.7857 130.539C45.7371 132.959 40.7534 131.559 38.5563 127.38L4.53865 62.6862C2.27204 58.3757 3.84326 52.7856 8.02025 50.2889L70.7403 12.7998C74.7889 10.3799 79.7726 11.7801 81.9697 15.9586C84.2364 20.2692 82.6651 25.8593 78.4881 28.3559L26.2214 59.5969ZM169.85 5.04838L171.944 2.24337L169.85 5.04838C173.514 7.78255 174.456 13.3987 171.545 17.6017L72.4546 160.676C69.5903 164.811 64.3658 165.619 60.7911 162.952C57.1273 160.217 56.1859 154.601 59.0968 150.398L158.187 7.32422C161.051 3.18865 166.276 2.38071 169.85 5.04838ZM202.779 114.247L205.623 112.547L204.081 109.614L175.733 55.7024C173.466 51.3918 175.037 45.8017 179.214 43.305C183.263 40.8851 188.247 42.2854 190.444 46.4638L224.461 111.158C226.728 115.468 225.157 121.058 220.98 123.555L158.26 161.044C154.211 163.464 149.227 162.064 147.03 157.885C144.764 153.575 146.335 147.985 150.512 145.488L202.779 114.247Z" fill="#CDD7E5" stroke="white" stroke-width="7"/>
</svg>
