<svg width="240" height="206" viewBox="0 0 240 206" fill="none" xmlns="http://www.w3.org/2000/svg">
<path d="M235.579 134.969L235.63 135.059L235.688 135.145C236.729 136.707 236.729 138.821 235.688 140.384L235.63 140.47L235.579 140.559L201.392 200.426C200.145 202.255 198.465 203.292 196.237 203.292H127.753C125.525 203.292 123.845 202.255 122.598 200.426L88.4107 140.559L88.3595 140.47L88.3022 140.384C87.2612 138.821 87.2612 136.707 88.3022 135.145L88.3595 135.059L88.4107 134.969L122.598 75.1026C123.845 73.2736 125.525 72.2358 127.753 72.2358H196.237C198.465 72.2358 200.145 73.2735 201.392 75.1026L235.579 134.969ZM113.172 49.3252L113.219 49.4062L113.271 49.4841C114.28 50.9981 114.422 53.2547 113.861 55.17L89.2527 97.6259C88.0059 99.4595 86.3239 100.5 84.0934 100.5H34.4419C33.7668 100.5 32.7562 100.255 31.6916 99.6811C30.6706 99.131 29.8148 98.3937 29.28 97.6214L4.5071 54.8823L4.46015 54.8013L4.40823 54.7234C3.36726 53.161 3.36726 51.0466 4.40823 49.4841L4.46015 49.4062L4.5071 49.3252L29.28 6.58619C29.8147 5.81381 30.6706 5.07651 31.6916 4.52639C32.7562 3.95276 33.7668 3.70752 34.4419 3.70752H84.0934C84.7785 3.70752 85.7601 3.9584 86.6474 4.47627C87.5543 5.00567 87.976 5.57954 88.0957 5.93868L88.1926 6.22965L88.3464 6.49498L113.172 49.3252ZM116.192 137.764C116.192 163.404 136.367 183.594 161.995 183.594C187.623 183.594 207.798 163.404 207.798 137.764C207.798 112.124 187.623 91.934 161.995 91.934C136.367 91.934 116.192 112.124 116.192 137.764ZM30.5858 52.1038C30.5858 68.3211 43.056 80.8019 59.2676 80.8019C75.4793 80.8019 87.9495 68.3211 87.9495 52.1038C87.9495 35.8864 75.4793 23.4056 59.2676 23.4056C43.056 23.4056 30.5858 35.8864 30.5858 52.1038Z" fill="#C0DBD1" stroke="#F4F6F8" stroke-width="6"/>
</svg>
