<svg width="32" height="33" viewBox="0 0 32 33" fill="none" xmlns="http://www.w3.org/2000/svg">
<g clip-path="url(#clip0_2_8192)">
<path d="M16 32.3477C24.6156 32.3477 31.6 25.3633 31.6 16.7477C31.6 8.13206 24.6156 1.14771 16 1.14771C7.38435 1.14771 0.399994 8.13206 0.399994 16.7477C0.399994 25.3633 7.38435 32.3477 16 32.3477Z" stroke="white"/>
<path d="M16.648 15.9454C16.648 15.9454 14.6704 16.4046 12.4632 13.8246C12.4632 13.8246 11.6032 15.5158 13.0936 16.5478C13.0936 16.5478 12.6064 16.6334 12.2056 16.3478C12.2056 16.3478 12.0328 17.8086 13.8104 18.3822H12.864C12.864 18.3822 13.1224 19.5574 14.7848 19.815C14.7848 19.815 14.0968 20.7326 11.8608 20.675C11.8608 20.675 13.1224 21.6494 15.0432 21.6206C15.0432 21.6206 18.5968 21.7926 20.288 17.7806C20.704 16.7926 20.6608 15.8598 20.632 15.4006L21.7216 14.4262L20.632 14.627C20.632 14.627 21.3776 14.083 21.464 13.567L20.26 14.0542C20.26 14.0542 19.356 13.2366 17.8232 13.5662C17.8232 13.5662 16.4184 13.8534 16.6472 15.9454H16.648ZM17.768 12.171C18.8048 11.967 19.736 12.115 20.5208 12.4934C20.564 12.5142 20.6056 12.535 20.6448 12.5558L21.4136 12.2446C22.2056 11.9246 23.0424 12.5942 22.9032 13.4366C23.28 13.851 23.34 14.543 22.8304 14.9982L22.0416 15.7038C22.052 16.571 21.9328 17.3486 21.5672 18.2158C20.9168 19.7598 19.9832 20.9214 18.8408 21.7302C18.0328 22.3014 17.1696 22.6638 16.2992 22.8582C15.7368 22.9854 15.2592 23.0246 14.908 23.0158C13.836 23.0278 12.8488 22.8014 11.9672 22.4158C11.4432 22.1862 11.0584 21.9486 10.8264 21.7702C9.9896 21.1238 10.4664 19.7846 11.5232 19.811C11.7264 19.8166 11.916 19.8134 12.0936 19.803C11.7576 19.4038 11.5784 19.003 11.5064 18.6726C11.4808 18.5582 11.4744 18.4446 11.4848 18.335C11.4152 18.2502 11.3504 18.163 11.2896 18.0726C10.864 17.4318 10.7368 16.7726 10.772 16.2102C10.776 16.1542 10.776 16.1542 10.78 16.1214C10.7992 15.9582 10.852 15.8102 10.9288 15.683C10.7024 14.9614 10.7536 14.2358 10.9672 13.5526C11.036 13.3302 11.1096 13.1566 11.1688 13.0406C11.5216 12.3454 12.468 12.2326 12.9744 12.8246C13.772 13.7574 14.56 14.3126 15.312 14.5806C15.4048 14.6142 15.4944 14.6422 15.58 14.6654C15.82 13.155 16.8136 12.2518 17.7688 12.171H17.768ZM12.6616 15.383H12.6592H12.6616Z" fill="white"/>
</g>
<defs>
<clipPath id="clip0_2_8192">
<rect width="32" height="32" fill="white" transform="translate(0 0.747803)"/>
</clipPath>
</defs>
</svg>
