<svg width="32" height="33" viewBox="0 0 32 33" fill="none" xmlns="http://www.w3.org/2000/svg">
<g clip-path="url(#clip0_2_8195)">
<path d="M16 32.3477C24.6156 32.3477 31.6 25.3633 31.6 16.7477C31.6 8.13206 24.6156 1.14771 16 1.14771C7.38435 1.14771 0.399994 8.13206 0.399994 16.7477C0.399994 25.3633 7.38435 32.3477 16 32.3477Z" stroke="white"/>
<path d="M20.4168 12.6439C21.092 12.8319 21.5528 13.2919 21.74 13.9671C21.8208 14.2599 21.876 14.6319 21.9104 15.1023C21.9488 15.5383 21.9672 15.9327 21.9664 16.2511L22 16.7479C22 17.9575 21.9128 18.8935 21.74 19.5287C21.5528 20.2039 21.092 20.6647 20.416 20.8519C20.1096 20.9367 19.6128 20.9887 18.8544 21.0231C18.16 21.0607 17.5008 21.0791 16.888 21.0791L16 21.1111C13.7096 21.1111 12.2256 21.0263 11.5832 20.8519C10.908 20.6639 10.4472 20.2039 10.26 19.5279C10.1792 19.2359 10.124 18.8639 10.0896 18.3935C10.0512 17.9575 10.0328 17.5631 10.0336 17.2447L10 16.7479C10 15.5383 10.0872 14.6023 10.26 13.9671C10.4472 13.2919 10.908 12.8311 11.584 12.6439C11.8904 12.5591 12.3872 12.5071 13.1456 12.4727C13.84 12.4351 14.4992 12.4167 15.112 12.4167L16 12.3855C18.2904 12.3855 19.7744 12.4703 20.4168 12.6447V12.6439ZM16.0208 13.4759L15.1328 13.5087C14.5192 13.5087 13.8792 13.5263 13.1992 13.5623C12.516 13.5943 12.0784 13.6399 11.8752 13.6959C11.5688 13.7815 11.396 13.9535 11.312 14.2575C11.1696 14.7791 11.0912 15.6279 11.0896 16.7095L11.124 17.2071C11.124 17.5311 11.14 17.8935 11.1768 18.3063C11.2072 18.7183 11.2528 19.0263 11.3112 19.2375C11.396 19.5439 11.5688 19.7159 11.872 19.8007C12.3816 19.9391 13.8144 20.0215 15.9792 20.0215L16.8672 19.9887C17.4808 19.9887 18.1208 19.9711 18.8008 19.9351C19.484 19.9031 19.9216 19.8575 20.1248 19.8015C20.4312 19.7159 20.604 19.5439 20.688 19.2399C20.8304 18.7183 20.9088 17.8695 20.9104 16.7879L20.876 16.2903C20.876 15.9663 20.86 15.6039 20.8232 15.1911C20.7928 14.7791 20.7472 14.4711 20.6888 14.2599C20.604 13.9535 20.4312 13.7815 20.128 13.6967C19.6184 13.5583 18.1856 13.4759 16.0208 13.4759ZM14.9008 15.4991C14.9008 15.3071 15.112 15.1895 15.2752 15.2943L17.2568 16.5535C17.408 16.6503 17.408 16.8695 17.2568 16.9647L15.2752 18.2255C15.112 18.3303 14.9 18.2135 14.9 18.0215L14.9008 15.4991Z" fill="white"/>
</g>
<defs>
<clipPath id="clip0_2_8195">
<rect width="32" height="32" fill="white" transform="translate(0 0.747803)"/>
</clipPath>
</defs>
</svg>
